<mxfile host="app.diagrams.net" modified="2023-04-19T22:52:58.731Z" agent="Mozilla/5.0 (Windows NT 10.0; Win64; x64) AppleWebKit/537.36 (KHTML, like Gecko) Chrome/112.0.0.0 Safari/537.36" etag="Aja2vD2lR-K-OVXyqsch" version="21.2.1" type="device">
  <diagram name="Página-1" id="Z-22YtipE2zj13dRasnH">
    <mxGraphModel dx="715" dy="354" grid="1" gridSize="10" guides="1" tooltips="1" connect="1" arrows="1" fold="1" page="1" pageScale="1" pageWidth="827" pageHeight="1169" math="0" shadow="0">
      <root>
        <mxCell id="0" />
        <mxCell id="1" parent="0" />
        <mxCell id="DNFtMjHl9jFX2TWQ3cy6-16" style="edgeStyle=orthogonalEdgeStyle;shape=connector;rounded=0;orthogonalLoop=1;jettySize=auto;html=1;labelBackgroundColor=default;strokeColor=default;fontFamily=Helvetica;fontSize=11;fontColor=default;endArrow=none;endFill=0;" edge="1" parent="1" source="DNFtMjHl9jFX2TWQ3cy6-1" target="DNFtMjHl9jFX2TWQ3cy6-10">
          <mxGeometry relative="1" as="geometry" />
        </mxCell>
        <mxCell id="DNFtMjHl9jFX2TWQ3cy6-1" value="CLINICA" style="rounded=0;whiteSpace=wrap;html=1;" vertex="1" parent="1">
          <mxGeometry x="70" y="50" width="120" height="60" as="geometry" />
        </mxCell>
        <mxCell id="DNFtMjHl9jFX2TWQ3cy6-18" style="edgeStyle=orthogonalEdgeStyle;shape=connector;rounded=0;orthogonalLoop=1;jettySize=auto;html=1;labelBackgroundColor=default;strokeColor=default;fontFamily=Helvetica;fontSize=11;fontColor=default;endArrow=none;endFill=0;" edge="1" parent="1" source="DNFtMjHl9jFX2TWQ3cy6-4" target="DNFtMjHl9jFX2TWQ3cy6-11">
          <mxGeometry relative="1" as="geometry" />
        </mxCell>
        <mxCell id="DNFtMjHl9jFX2TWQ3cy6-4" value="VETERINARIO" style="rounded=0;whiteSpace=wrap;html=1;" vertex="1" parent="1">
          <mxGeometry x="340" y="50" width="120" height="60" as="geometry" />
        </mxCell>
        <mxCell id="DNFtMjHl9jFX2TWQ3cy6-20" style="edgeStyle=orthogonalEdgeStyle;shape=connector;rounded=0;orthogonalLoop=1;jettySize=auto;html=1;labelBackgroundColor=default;strokeColor=default;fontFamily=Helvetica;fontSize=11;fontColor=default;endArrow=none;endFill=0;" edge="1" parent="1" source="DNFtMjHl9jFX2TWQ3cy6-5" target="DNFtMjHl9jFX2TWQ3cy6-12">
          <mxGeometry relative="1" as="geometry" />
        </mxCell>
        <mxCell id="DNFtMjHl9jFX2TWQ3cy6-5" value="ATENDIMENTO" style="rounded=0;whiteSpace=wrap;html=1;" vertex="1" parent="1">
          <mxGeometry x="580" y="50" width="120" height="60" as="geometry" />
        </mxCell>
        <mxCell id="DNFtMjHl9jFX2TWQ3cy6-22" style="edgeStyle=orthogonalEdgeStyle;shape=connector;rounded=0;orthogonalLoop=1;jettySize=auto;html=1;exitX=0;exitY=0.5;exitDx=0;exitDy=0;entryX=1;entryY=0.5;entryDx=0;entryDy=0;labelBackgroundColor=default;strokeColor=default;fontFamily=Helvetica;fontSize=11;fontColor=default;endArrow=none;endFill=0;" edge="1" parent="1" source="DNFtMjHl9jFX2TWQ3cy6-6" target="DNFtMjHl9jFX2TWQ3cy6-13">
          <mxGeometry relative="1" as="geometry" />
        </mxCell>
        <mxCell id="DNFtMjHl9jFX2TWQ3cy6-24" style="edgeStyle=orthogonalEdgeStyle;shape=connector;rounded=0;orthogonalLoop=1;jettySize=auto;html=1;labelBackgroundColor=default;strokeColor=default;fontFamily=Helvetica;fontSize=11;fontColor=default;endArrow=none;endFill=0;" edge="1" parent="1" source="DNFtMjHl9jFX2TWQ3cy6-6" target="DNFtMjHl9jFX2TWQ3cy6-14">
          <mxGeometry relative="1" as="geometry" />
        </mxCell>
        <mxCell id="DNFtMjHl9jFX2TWQ3cy6-6" value="PET" style="rounded=0;whiteSpace=wrap;html=1;" vertex="1" parent="1">
          <mxGeometry x="340" y="210" width="120" height="60" as="geometry" />
        </mxCell>
        <mxCell id="DNFtMjHl9jFX2TWQ3cy6-7" value="DONO" style="rounded=0;whiteSpace=wrap;html=1;" vertex="1" parent="1">
          <mxGeometry x="70" y="210" width="120" height="60" as="geometry" />
        </mxCell>
        <mxCell id="DNFtMjHl9jFX2TWQ3cy6-28" style="edgeStyle=orthogonalEdgeStyle;shape=connector;rounded=0;orthogonalLoop=1;jettySize=auto;html=1;labelBackgroundColor=default;strokeColor=default;fontFamily=Helvetica;fontSize=11;fontColor=default;endArrow=none;endFill=0;" edge="1" parent="1" source="DNFtMjHl9jFX2TWQ3cy6-8" target="DNFtMjHl9jFX2TWQ3cy6-15">
          <mxGeometry relative="1" as="geometry" />
        </mxCell>
        <mxCell id="DNFtMjHl9jFX2TWQ3cy6-8" value="RAÇA" style="rounded=0;whiteSpace=wrap;html=1;" vertex="1" parent="1">
          <mxGeometry x="340" y="410" width="120" height="60" as="geometry" />
        </mxCell>
        <mxCell id="DNFtMjHl9jFX2TWQ3cy6-9" value="TIPOPET" style="rounded=0;whiteSpace=wrap;html=1;" vertex="1" parent="1">
          <mxGeometry x="70" y="410" width="120" height="60" as="geometry" />
        </mxCell>
        <mxCell id="DNFtMjHl9jFX2TWQ3cy6-17" style="edgeStyle=orthogonalEdgeStyle;shape=connector;rounded=0;orthogonalLoop=1;jettySize=auto;html=1;labelBackgroundColor=default;strokeColor=default;fontFamily=Helvetica;fontSize=11;fontColor=default;endArrow=none;endFill=0;" edge="1" parent="1" source="DNFtMjHl9jFX2TWQ3cy6-10" target="DNFtMjHl9jFX2TWQ3cy6-4">
          <mxGeometry relative="1" as="geometry" />
        </mxCell>
        <mxCell id="DNFtMjHl9jFX2TWQ3cy6-10" value="POSSUI" style="rhombus;whiteSpace=wrap;html=1;fontFamily=Helvetica;fontSize=11;fontColor=default;" vertex="1" parent="1">
          <mxGeometry x="230" y="40" width="80" height="80" as="geometry" />
        </mxCell>
        <mxCell id="DNFtMjHl9jFX2TWQ3cy6-19" style="edgeStyle=orthogonalEdgeStyle;shape=connector;rounded=0;orthogonalLoop=1;jettySize=auto;html=1;labelBackgroundColor=default;strokeColor=default;fontFamily=Helvetica;fontSize=11;fontColor=default;endArrow=none;endFill=0;" edge="1" parent="1" source="DNFtMjHl9jFX2TWQ3cy6-11" target="DNFtMjHl9jFX2TWQ3cy6-5">
          <mxGeometry relative="1" as="geometry" />
        </mxCell>
        <mxCell id="DNFtMjHl9jFX2TWQ3cy6-11" value="POSSUI" style="rhombus;whiteSpace=wrap;html=1;fontFamily=Helvetica;fontSize=11;fontColor=default;" vertex="1" parent="1">
          <mxGeometry x="480" y="40" width="80" height="80" as="geometry" />
        </mxCell>
        <mxCell id="DNFtMjHl9jFX2TWQ3cy6-21" style="edgeStyle=orthogonalEdgeStyle;shape=connector;rounded=0;orthogonalLoop=1;jettySize=auto;html=1;labelBackgroundColor=default;strokeColor=default;fontFamily=Helvetica;fontSize=11;fontColor=default;endArrow=none;endFill=0;" edge="1" parent="1" source="DNFtMjHl9jFX2TWQ3cy6-12" target="DNFtMjHl9jFX2TWQ3cy6-6">
          <mxGeometry relative="1" as="geometry" />
        </mxCell>
        <mxCell id="DNFtMjHl9jFX2TWQ3cy6-12" value="POSSUI" style="rhombus;whiteSpace=wrap;html=1;fontFamily=Helvetica;fontSize=11;fontColor=default;" vertex="1" parent="1">
          <mxGeometry x="600" y="200" width="80" height="80" as="geometry" />
        </mxCell>
        <mxCell id="DNFtMjHl9jFX2TWQ3cy6-23" style="edgeStyle=orthogonalEdgeStyle;shape=connector;rounded=0;orthogonalLoop=1;jettySize=auto;html=1;labelBackgroundColor=default;strokeColor=default;fontFamily=Helvetica;fontSize=11;fontColor=default;endArrow=none;endFill=0;" edge="1" parent="1" source="DNFtMjHl9jFX2TWQ3cy6-13" target="DNFtMjHl9jFX2TWQ3cy6-7">
          <mxGeometry relative="1" as="geometry" />
        </mxCell>
        <mxCell id="DNFtMjHl9jFX2TWQ3cy6-13" value="POSSUI" style="rhombus;whiteSpace=wrap;html=1;fontFamily=Helvetica;fontSize=11;fontColor=default;" vertex="1" parent="1">
          <mxGeometry x="230" y="200" width="80" height="80" as="geometry" />
        </mxCell>
        <mxCell id="DNFtMjHl9jFX2TWQ3cy6-27" style="edgeStyle=orthogonalEdgeStyle;shape=connector;rounded=0;orthogonalLoop=1;jettySize=auto;html=1;labelBackgroundColor=default;strokeColor=default;fontFamily=Helvetica;fontSize=11;fontColor=default;endArrow=none;endFill=0;" edge="1" parent="1" source="DNFtMjHl9jFX2TWQ3cy6-14" target="DNFtMjHl9jFX2TWQ3cy6-8">
          <mxGeometry relative="1" as="geometry" />
        </mxCell>
        <mxCell id="DNFtMjHl9jFX2TWQ3cy6-14" value="POSSUI" style="rhombus;whiteSpace=wrap;html=1;fontFamily=Helvetica;fontSize=11;fontColor=default;" vertex="1" parent="1">
          <mxGeometry x="360" y="290" width="80" height="80" as="geometry" />
        </mxCell>
        <mxCell id="DNFtMjHl9jFX2TWQ3cy6-29" style="edgeStyle=orthogonalEdgeStyle;shape=connector;rounded=0;orthogonalLoop=1;jettySize=auto;html=1;labelBackgroundColor=default;strokeColor=default;fontFamily=Helvetica;fontSize=11;fontColor=default;endArrow=none;endFill=0;" edge="1" parent="1" source="DNFtMjHl9jFX2TWQ3cy6-15" target="DNFtMjHl9jFX2TWQ3cy6-9">
          <mxGeometry relative="1" as="geometry" />
        </mxCell>
        <mxCell id="DNFtMjHl9jFX2TWQ3cy6-15" value="POSSUI" style="rhombus;whiteSpace=wrap;html=1;fontFamily=Helvetica;fontSize=11;fontColor=default;" vertex="1" parent="1">
          <mxGeometry x="230" y="400" width="80" height="80" as="geometry" />
        </mxCell>
        <mxCell id="DNFtMjHl9jFX2TWQ3cy6-30" value="N" style="text;html=1;align=center;verticalAlign=middle;resizable=0;points=[];autosize=1;strokeColor=none;fillColor=none;fontSize=11;fontFamily=Helvetica;fontColor=default;" vertex="1" parent="1">
          <mxGeometry x="310" y="50" width="30" height="30" as="geometry" />
        </mxCell>
        <mxCell id="DNFtMjHl9jFX2TWQ3cy6-31" value="1" style="text;html=1;align=center;verticalAlign=middle;resizable=0;points=[];autosize=1;strokeColor=none;fillColor=none;fontSize=11;fontFamily=Helvetica;fontColor=default;" vertex="1" parent="1">
          <mxGeometry x="195" y="48" width="30" height="30" as="geometry" />
        </mxCell>
        <mxCell id="DNFtMjHl9jFX2TWQ3cy6-32" value="N" style="text;html=1;align=center;verticalAlign=middle;resizable=0;points=[];autosize=1;strokeColor=none;fillColor=none;fontSize=11;fontFamily=Helvetica;fontColor=default;" vertex="1" parent="1">
          <mxGeometry x="555" y="48" width="30" height="30" as="geometry" />
        </mxCell>
        <mxCell id="DNFtMjHl9jFX2TWQ3cy6-33" value="1" style="text;html=1;align=center;verticalAlign=middle;resizable=0;points=[];autosize=1;strokeColor=none;fillColor=none;fontSize=11;fontFamily=Helvetica;fontColor=default;" vertex="1" parent="1">
          <mxGeometry x="460" y="50" width="30" height="30" as="geometry" />
        </mxCell>
        <mxCell id="DNFtMjHl9jFX2TWQ3cy6-36" value="1" style="text;html=1;align=center;verticalAlign=middle;resizable=0;points=[];autosize=1;strokeColor=none;fillColor=none;fontSize=11;fontFamily=Helvetica;fontColor=default;" vertex="1" parent="1">
          <mxGeometry x="455" y="208" width="30" height="30" as="geometry" />
        </mxCell>
        <mxCell id="DNFtMjHl9jFX2TWQ3cy6-37" value="N" style="text;html=1;align=center;verticalAlign=middle;resizable=0;points=[];autosize=1;strokeColor=none;fillColor=none;fontSize=11;fontFamily=Helvetica;fontColor=default;" vertex="1" parent="1">
          <mxGeometry x="615" y="110" width="30" height="30" as="geometry" />
        </mxCell>
        <mxCell id="DNFtMjHl9jFX2TWQ3cy6-38" value="1" style="text;html=1;align=center;verticalAlign=middle;resizable=0;points=[];autosize=1;strokeColor=none;fillColor=none;fontSize=11;fontFamily=Helvetica;fontColor=default;" vertex="1" parent="1">
          <mxGeometry x="185" y="208" width="30" height="30" as="geometry" />
        </mxCell>
        <mxCell id="DNFtMjHl9jFX2TWQ3cy6-39" value="N" style="text;html=1;align=center;verticalAlign=middle;resizable=0;points=[];autosize=1;strokeColor=none;fillColor=none;fontSize=11;fontFamily=Helvetica;fontColor=default;" vertex="1" parent="1">
          <mxGeometry x="310" y="210" width="30" height="30" as="geometry" />
        </mxCell>
        <mxCell id="DNFtMjHl9jFX2TWQ3cy6-40" value="1" style="text;html=1;align=center;verticalAlign=middle;resizable=0;points=[];autosize=1;strokeColor=none;fillColor=none;fontSize=11;fontFamily=Helvetica;fontColor=default;" vertex="1" parent="1">
          <mxGeometry x="395" y="378" width="30" height="30" as="geometry" />
        </mxCell>
        <mxCell id="DNFtMjHl9jFX2TWQ3cy6-41" value="N" style="text;html=1;align=center;verticalAlign=middle;resizable=0;points=[];autosize=1;strokeColor=none;fillColor=none;fontSize=11;fontFamily=Helvetica;fontColor=default;" vertex="1" parent="1">
          <mxGeometry x="399" y="270" width="30" height="30" as="geometry" />
        </mxCell>
        <mxCell id="DNFtMjHl9jFX2TWQ3cy6-42" value="1" style="text;html=1;align=center;verticalAlign=middle;resizable=0;points=[];autosize=1;strokeColor=none;fillColor=none;fontSize=11;fontFamily=Helvetica;fontColor=default;" vertex="1" parent="1">
          <mxGeometry x="185" y="408" width="30" height="30" as="geometry" />
        </mxCell>
        <mxCell id="DNFtMjHl9jFX2TWQ3cy6-43" value="N" style="text;html=1;align=center;verticalAlign=middle;resizable=0;points=[];autosize=1;strokeColor=none;fillColor=none;fontSize=11;fontFamily=Helvetica;fontColor=default;" vertex="1" parent="1">
          <mxGeometry x="315" y="408" width="30" height="30" as="geometry" />
        </mxCell>
      </root>
    </mxGraphModel>
  </diagram>
</mxfile>
